<svg width="46" height="69" viewBox="0 0 46 69" fill="none" xmlns="http://www.w3.org/2000/svg">
<rect x="13.0573" y="64.9768" width="12.6389" height="65.3388" transform="rotate(-152 13.0573 64.9768)" fill="white" stroke="black" stroke-width="2"/>
<line x1="23.2183" y1="37.3864" x2="15.6815" y2="33.379" stroke="black"/>
<rect x="39.2065" y="57.274" width="6.97345" height="61.6771" transform="rotate(152 39.2065 57.274)" fill="white" stroke="black" stroke-width="2"/>
<line x1="37.0164" y1="11.2286" x2="29.4797" y2="7.2213" stroke="black"/>
<line x1="34.9294" y1="15.428" x2="27.3927" y2="11.4207" stroke="black"/>
<line x1="30.5376" y1="22.7474" x2="23.0009" y2="18.7401" stroke="black"/>
<line x1="28.3419" y1="26.4072" x2="20.8051" y2="22.3998" stroke="black"/>
<line x1="21.0223" y1="41.0461" x2="13.4856" y2="37.0387" stroke="black"/>
<line x1="19.5585" y1="44.7058" x2="12.0218" y2="40.6984" stroke="black"/>
<line x1="17.3626" y1="48.3655" x2="9.82589" y2="44.3581" stroke="black"/>
<line x1="15.8987" y1="52.0252" x2="8.36202" y2="48.0179" stroke="black"/>
<line x1="13.703" y1="55.6849" x2="6.16628" y2="51.6776" stroke="black"/>
<line x1="11.5071" y1="59.3446" x2="3.97042" y2="55.3373" stroke="black"/>
<line x1="32.7335" y1="19.0877" x2="25.1967" y2="15.0804" stroke="black"/>
<path d="M39.4643 59.3656L39.165 64.8467L34.6054 61.9491L39.4643 59.3656Z" fill="#C4C4C4" stroke="black" stroke-width="2"/>
<path d="M39.1453 64.5653L34.0116 61.3787L39.3742 58.5274L39.1453 64.5653Z" fill="white"/>
<rect x="38.0361" y="58.1279" width="4.07805" height="54.5861" transform="rotate(152 38.0361 58.1279)" fill="white" stroke="white" stroke-width="2"/>
<line x1="13.4203" y1="8.86152" x2="7.63994" y2="11.935" stroke="black" stroke-width="2"/>
</svg>
