<svg width="114" height="60" viewBox="0 0 114 60" fill="none" xmlns="http://www.w3.org/2000/svg">
<rect x="1.91809" y="1" width="110.589" height="57.9657" fill="white" stroke="black" stroke-width="2"/>
<circle cx="18.969" cy="17.439" r="12.1558" fill="white" stroke="black" stroke-width="2"/>
<path d="M26.8415 24.3051C26.8415 25.9012 26.0598 27.1829 24.6857 28.1049C23.2855 29.0444 21.276 29.5948 18.969 29.5948C16.6621 29.5948 14.6526 29.0444 13.2524 28.1049C11.8783 27.1829 11.0966 25.9012 11.0966 24.3051C11.0966 21.0846 14.4119 18.1331 18.969 18.1331C23.5261 18.1331 26.8415 21.0846 26.8415 24.3051Z" fill="white" stroke="black" stroke-width="2"/>
<path d="M23.782 12.8498C23.782 15.2887 21.6788 17.3568 18.969 17.3568C16.2592 17.3568 14.156 15.2887 14.156 12.8498C14.156 10.4108 16.2592 8.34271 18.969 8.34271C21.6788 8.34271 23.782 10.4108 23.782 12.8498Z" fill="white" stroke="black" stroke-width="2"/>
<line x1="7.03711" y1="35.7137" x2="44.9746" y2="35.7137" stroke="black" stroke-width="2"/>
<line x1="51.0935" y1="35.7137" x2="104.328" y2="35.7137" stroke="black" stroke-width="2"/>
<line x1="37.6318" y1="17.9688" x2="104.328" y2="17.9688" stroke="black" stroke-width="2"/>
<line x1="7.03711" y1="49.7873" x2="27.8416" y2="49.7873" stroke="black" stroke-width="2"/>
<line x1="33.3485" y1="49.7873" x2="54.153" y2="49.7873" stroke="black" stroke-width="2"/>
<line x1="59.66" y1="49.7873" x2="104.328" y2="49.7873" stroke="black" stroke-width="2"/>
</svg>
