<svg width="68" height="68" viewBox="0 0 68 68" fill="none" xmlns="http://www.w3.org/2000/svg">
<rect x="1.53479" y="66.4207" width="13.1023" height="65.6706" transform="rotate(-90 1.53479 66.4207)" fill="white" stroke="black" stroke-width="1.5"/>
<line x1="25.4424" y1="66.8786" x2="25.4424" y2="52.8604" stroke="black" stroke-width="1.5"/>
<rect x="10.0676" y="66.051" width="13.1023" height="65.6706" transform="rotate(-120 10.0676 66.051)" fill="white" stroke="black" stroke-width="1.5"/>
<path d="M35.9369 35.1267L43.2381 47.6847M23.2723 41.9905L30.5735 54.5485" stroke="black" stroke-width="1.5"/>
<line x1="11.3627" y1="49.2709" x2="18.6639" y2="61.8289" stroke="black" stroke-width="1.5"/>
<rect x="13.6599" y="66.0254" width="13.1023" height="65.6706" transform="rotate(-152 13.6599 66.0254)" fill="white" stroke="black" stroke-width="1.5"/>
<line x1="24.9447" y1="45.9183" x2="12.6787" y2="38.9092" stroke="black" stroke-width="1.5"/>
<line x1="18.538" y1="57.3184" x2="5.97999" y2="50.6013" stroke="black" stroke-width="1.5"/>
<rect x="1.53491" y="0.75" width="13.1023" height="65.6706" fill="white" stroke="black" stroke-width="1.5"/>
<line x1="1.0769" y1="13.8523" x2="15.0951" y2="13.8523" stroke="black" stroke-width="1.5"/>
<line x1="53.4803" y1="66.9459" x2="53.4803" y2="52.9276" stroke="black" stroke-width="1.5"/>
<path d="M31.7417 33.0012L19.4758 26.2842" stroke="black" stroke-width="1.5"/>
<line x1="0.78479" y1="41.8888" x2="14.803" y2="41.8888" stroke="black" stroke-width="1.5"/>
<line x1="1.0769" y1="27.8706" x2="15.0951" y2="27.8706" stroke="black" stroke-width="1.5"/>
<line x1="39.4625" y1="67.0583" x2="39.4625" y2="53.0401" stroke="black" stroke-width="1.5"/>
<line x1="38.2181" y1="20.6776" x2="25.8407" y2="14.0964" stroke="black" stroke-width="1.5"/>
<line x1="0.78479" y1="55.907" x2="14.803" y2="55.907" stroke="black" stroke-width="1.5"/>
<line x1="48.7447" y1="27.6595" x2="56.0458" y2="40.2175" stroke="black" stroke-width="1.5"/>
<circle cx="8.08595" cy="61.9139" r="2.04432" fill="black"/>
</svg>
