<svg width="56" height="66" viewBox="0 0 56 66" fill="none" xmlns="http://www.w3.org/2000/svg">
<rect x="0.75" y="0.75" width="54.5" height="20.5" fill="white" stroke="black" stroke-width="1.5"/>
<rect x="0.75" y="65.25" width="39.5" height="17.5" transform="rotate(-90 0.75 65.25)" fill="white" stroke="black" stroke-width="1.5"/>
<rect x="23.75" y="65.25" width="39.5" height="31.5" transform="rotate(-90 23.75 65.25)" fill="white" stroke="black" stroke-width="1.5"/>
<line x1="4" y1="30.25" x2="15" y2="30.25" stroke="black" stroke-width="1.5"/>
<line x1="27" y1="30.25" x2="53" y2="30.25" stroke="black" stroke-width="1.5"/>
<line x1="4" y1="42.25" x2="15" y2="42.25" stroke="black" stroke-width="1.5"/>
<path d="M4 6L53 6" stroke="black" stroke-width="1.5"/>
<line x1="4" y1="34.25" x2="15" y2="34.25" stroke="black" stroke-width="1.5"/>
<line x1="27" y1="34.25" x2="39" y2="34.25" stroke="black" stroke-width="1.5"/>
<line x1="4" y1="47.25" x2="15" y2="47.25" stroke="black" stroke-width="1.5"/>
<line x1="27" y1="47.25" x2="39" y2="47.25" stroke="black" stroke-width="1.5"/>
<line x1="4" y1="11.25" x2="53" y2="11.25" stroke="black" stroke-width="1.5"/>
<line x1="4" y1="39.25" x2="15" y2="39.25" stroke="black" stroke-width="1.5"/>
<line x1="27" y1="39.25" x2="39" y2="39.25" stroke="black" stroke-width="1.5"/>
<line x1="4" y1="51.25" x2="15" y2="51.25" stroke="black" stroke-width="1.5"/>
<line x1="27" y1="51.25" x2="53" y2="51.25" stroke="black" stroke-width="1.5"/>
<line x1="4" y1="16.25" x2="53" y2="16.25" stroke="black" stroke-width="1.5"/>
<line x1="27" y1="42.25" x2="39" y2="42.25" stroke="black" stroke-width="1.5"/>
<line x1="4" y1="56.25" x2="15" y2="56.25" stroke="black" stroke-width="1.5"/>
<line x1="4" y1="60.25" x2="15" y2="60.25" stroke="black" stroke-width="1.5"/>
<line x1="27" y1="56.25" x2="53" y2="56.25" stroke="black" stroke-width="1.5"/>
<line x1="27" y1="60.25" x2="53" y2="60.25" stroke="black" stroke-width="1.5"/>
<rect x="41.75" y="33.75" width="10.5" height="13.5" stroke="black" stroke-width="1.5"/>
</svg>
